<?xml version="1.0" encoding="UTF-8"?>
<svg width="103px" height="72px" viewBox="0 0 103 72" version="1.1" xmlns="http://www.w3.org/2000/svg" xmlns:xlink="http://www.w3.org/1999/xlink">
    <!-- Generator: Sketch 50.2 (55047) - http://www.bohemiancoding.com/sketch -->
    <title>logo-bw</title>
    <desc>Created with Sketch.</desc>
    <defs>
        <rect id="path-1" x="0.691941457" y="0.994950837" width="108.308059" height="71.0050492"></rect>
    </defs>
    <g id="Page-1" stroke="none" stroke-width="1" fill="none" fill-rule="evenodd">
        <g id="Detail-Page" transform="translate(-669.000000, -3300.000000)">
            <g id="Footer" transform="translate(0.000000, 3255.000000)">
                <g id="logo-bw" style="mix-blend-mode: difference;" transform="translate(666.000000, 45.000000)">
                    <mask id="mask-2" fill="white">
                        <use xlink:href="#path-1"></use>
                    </mask>
                    <g id="Mask"></g>
                    <g id="Logo-B/W" mask="url(#mask-2)">
                        <g transform="translate(-44.438018, 0.994951)">
                            <polyline id="Fill-8" fill="#FFFFFE" points="113.32776 18.8675765 96.2170039 50.7215352 98.0386814 63.1584129 113.241599 63.1584129 113.32776 18.8675765"></polyline>
                            <polyline id="Fill-9" fill="#FFFFFE" points="80.2221669 26.2227334 62.1194832 62.7482639 63.9395017 70.5135698 80.2221669 70.5135698 80.2221669 26.2227334"></polyline>
                            <path d="M131.554435,63.1584129 L131.375975,39.2566417 L121.059467,21.6038252 L113.289499,18.8675765 C113.560687,19.508408 119.385976,33.1726984 119.385976,33.1726984 L116.164965,29.5820077 L113.259756,34.2079746 L113.203769,63.1584129 L131.554435,63.1584129" id="Fill-10" fill="#797979"></path>
                            <path d="M98.4488417,70.3536751 L88.2895109,32.9065907 L85.8208967,30.8596802 C87.2496345,38.3229615 88.7264338,46.1647579 88.7264338,46.1647579 L84.4000235,40.5906725 L80.2221669,45.8966431 L80.2221669,70.3536751 L98.4488417,70.3536751" id="Fill-11" fill="#797979"></path>
                            <path d="M85.9257522,30.7250473 C84.6547286,24.0750919 83.428287,17.725508 83.2962893,17.4285241 L71.914771,48.448099 L77.2777214,40.9930122 L80.3250312,45.797828 L80.3250312,26.0591251 L85.9257522,30.7250473" id="Fill-12" fill="#CFD2D2"></path>
                            <path d="M88.7775449,46.209573 C88.7775449,46.209573 87.2918699,38.3571974 85.8545453,30.8838476 L80.2221669,26.2227334 L80.2221669,45.9410964 L84.4251326,40.6279677 L88.7775449,46.209573" id="Fill-13" fill="#92999B"></path>
                            <polyline id="Fill-14" fill="#CFD2D2" points="107.376193 34.6971534 110.771323 30.0481289 113.297932 34.2506113 113.32776 18.8675765 107.376193 34.6971534"></polyline>
                            <path d="M116.084952,29.5886391 L119.279327,33.1815522 C119.279327,33.1815522 113.502211,19.5088046 113.233266,18.8675765 L113.203769,34.2174692 L116.084952,29.5886391" id="Fill-15" fill="#92999B"></path>
                            <path d="M81.1470474,7.35515694 L84.9518226,7.35515694 C85.4653183,8.54540173 116.675516,70.6734645 116.675516,70.6734645 L98.5007482,70.6734645 C98.5007482,70.6734645 96.750832,65.7586134 88.7513402,46.3797989 C84.3322979,35.8961409 81.8664671,30.1904332 80.2234561,26.3334518 C78.5751875,30.9745013 75.70189,38.2811561 71.7928383,48.7659456 C67.4754436,60.1818866 63.9799926,70.6734645 63.9799926,70.6734645 L47.736529,70.6734645 C47.736529,70.6734645 79.8054741,12.7949829 81.1470474,7.35515694" id="Fill-16" fill="#1A1919"></path>
                            <path d="M114.296868,0 L118.108402,0 C118.625963,1.18691418 149.9051,63.3183076 149.9051,63.3183076 L131.692198,63.3183076 C131.692198,63.3183076 129.942139,58.4054559 121.916427,39.0233396 C117.492591,28.5391196 115.0197,22.8297116 113.376662,18.9781807 C111.729237,23.624005 108.843174,30.9310515 104.934268,41.4152716 C100.621841,52.8284302 97.5427884,61.7297208 97.1296164,63.0546746 C96.9225918,63.0546746 96.2251996,44.3763339 92.7452564,45.0393766 C92.7452564,45.0393766 112.960858,5.44351205 114.296868,0" id="Fill-17" fill="#1A1919"></path>
                        </g>
                    </g>
                </g>
            </g>
        </g>
    </g>
</svg>