<?xml version="1.0" encoding="UTF-8"?>
<svg width="120px" height="80px" viewBox="0 0 120 80" version="1.1" xmlns="http://www.w3.org/2000/svg" xmlns:xlink="http://www.w3.org/1999/xlink">
    <!-- Generator: Sketch 50.2 (55047) - http://www.bohemiancoding.com/sketch -->
    <title>Logo@1x</title>
    <desc>Created with Sketch.</desc>
    <defs></defs>
    <g id="Page-1" stroke="none" stroke-width="1" fill="none" fill-rule="evenodd">
        <g id="Products-Page" transform="translate(-660.000000, -30.000000)">
            <g id="Nav-Bar" transform="translate(0.000000, -409.000000)">
                <g id="Logo" transform="translate(660.000000, 439.000000)">
                    <g id="Group">
                        <path d="M35.1694737,79.9568421 C32.9873684,79.9568421 30.9378947,79.2136842 30.9378947,79.2136842 L30.4889474,74.5094737 L31.2073684,74.5094737 C31.9310526,77.4794737 33.4389474,78.8747368 35.5736842,78.8747368 C37.0557895,78.8747368 38.2278947,78.0189474 38.2278947,76.4673684 C38.2278947,74.7578947 37.1505263,74.0805263 34.5631579,72.4826316 C32.5373684,71.2694737 30.8694737,70.2547368 30.8694737,68.1884211 C30.8694737,65.8431579 32.8984211,63.9531579 36.1147368,63.9531579 C38.2978947,63.9531579 39.9668421,64.5610526 39.9668421,64.5610526 L40.2984211,68.8605263 L39.5584211,68.8605263 C38.9489474,66.34 38.0526316,65.0778947 35.6868421,65.0778947 C34.2673684,65.0778947 33.3684211,66.0036842 33.3684211,67.1957895 C33.3684211,68.3863158 34.2252632,69.2215789 36.4294737,70.4805263 C39.1542105,72.0557895 40.4826316,73.0263158 40.4826316,75.4089474 C40.4826316,77.9057895 38.2768421,79.9568421 35.1694737,79.9568421" id="Fill-1" fill="#193452"></path>
                        <path d="M52.3526316,72.4184211 C52.3526316,72.4184211 52.0626316,71.6515789 51.4726316,71.0884211 C51.1368421,70.7484211 50.5305263,70.5026316 49.8289474,70.5026316 L48.5047368,70.5026316 L48.5047368,77.7273684 C48.5047368,78.8747368 48.6578947,79.1689474 49.9684211,79.1689474 L49.9684211,79.7263158 L49.1568421,79.7263158 C48.4568421,79.7263158 48.0778947,79.7042105 47.3794737,79.7042105 C46.6563158,79.7042105 46.2547368,79.7263158 45.5336842,79.7263158 L44.7236842,79.7263158 L44.7236842,79.1689474 C45.9615789,79.1689474 46.1652632,78.8510526 46.1652632,77.7273684 L46.1652632,70.5026316 L45.0384211,70.5026316 C44.4321053,70.5026316 43.9136842,70.7063158 43.4605263,71.0215789 C42.6963158,71.5610526 42.4036842,72.4184211 42.4036842,72.4184211 L41.6857895,72.4184211 L42.8078947,69.2215789 C43.4126316,69.5142105 44.0263158,69.6052632 45.0621053,69.6052632 L50.1942105,69.6052632 C51.2705263,69.6052632 51.8794737,69.5142105 52.4626316,69.2657895 L52.9815789,72.4184211 L52.3526316,72.4184211" id="Fill-2" fill="#193452"></path>
                        <path d="M59.6078947,70.1652632 C57.1542105,70.1652632 56.4573684,72.3694737 56.4573684,74.7578947 C56.4573684,77.0078947 57.2226316,79.1442105 59.4715789,79.1442105 C61.8552632,79.1442105 62.5968421,76.9605263 62.5968421,74.5542105 C62.5968421,72.4184211 62.1263158,70.1652632 59.6078947,70.1652632 Z M59.43,80 C55.76,80 53.9126316,77.7494737 53.9126316,74.7578947 C53.9126316,71.5847368 55.9163158,69.3315789 59.6526316,69.3315789 C63.4278947,69.3315789 65.1621053,71.5610526 65.1621053,74.44 C65.1621053,77.5931579 63.2510526,80 59.43,80 Z" id="Fill-3" fill="#193452"></path>
                        <path d="M76.8942105,71.5610526 L76.8942105,79.6636842 L76.0589474,79.8184211 L68.7705263,71.6736842 L68.7705263,77.7968421 C68.7705263,79.0336842 69.1315789,79.1689474 70.3652632,79.1689474 L70.3652632,79.7263158 L69.6936842,79.7263158 C69.1721053,79.7263158 68.8584211,79.7042105 68.3410526,79.7042105 C67.7805263,79.7042105 67.4357895,79.7263158 66.88,79.7263158 L66.2442105,79.7263158 L66.2442105,79.1689474 C67.4847368,79.1689474 67.8252632,78.9668421 67.8252632,77.8178947 L67.8252632,71.5610526 C67.8252632,70.2352632 67.2868421,70.0757895 66.2442105,70.0757895 L66.2442105,69.5142105 C66.2442105,69.5142105 67.6915789,69.5352632 68.4052632,69.5352632 C69.0605263,69.5352632 70.0978947,69.5142105 70.0978947,69.5142105 L75.9252632,76.0389474 L75.9252632,71.5847368 C75.9252632,70.3689474 75.68,70.0757895 74.3457895,70.0757895 L74.3457895,69.5142105 L74.9573684,69.5142105 C75.4778947,69.5142105 75.7689474,69.5352632 76.3073684,69.5352632 C76.8705263,69.5352632 77.1857895,69.5142105 77.7710526,69.5142105 L78.3342105,69.5142105 L78.3342105,70.0757895 C77.1189474,70.0757895 76.8942105,70.3689474 76.8942105,71.5610526" id="Fill-4" fill="#193452"></path>
                        <path d="M88.76,79.7263158 L84.1705263,79.7263158 C83.5015789,79.7263158 83.1142105,79.7042105 82.4584211,79.7042105 C81.7389474,79.7042105 81.3389474,79.7263158 80.6142105,79.7263158 L79.8036842,79.7263158 L79.8036842,79.1689474 C80.7963158,79.1689474 81.2468421,79.0768421 81.2468421,77.7273684 L81.2468421,71.5610526 C81.2468421,70.3910526 81.0642105,70.0757895 79.8036842,70.0757895 L79.8036842,69.5142105 L80.6142105,69.5142105 C81.2889474,69.5142105 81.6957895,69.5352632 82.3721053,69.5352632 C83.0663158,69.5352632 83.4705263,69.5142105 84.1705263,69.5142105 L88.3136842,69.5142105 L89.0294737,72.1226316 L88.2863158,72.1226316 C87.7257895,71.1331579 87.0510526,70.4389474 85.1126316,70.4389474 L83.5847368,70.4389474 L83.5847368,73.9689474 L85.4057895,73.9689474 C86.2226316,73.9689474 86.4642105,73.2689474 86.4642105,72.4826316 L87.14,72.4826316 L87.14,76.4226316 L86.4642105,76.4226316 C86.4642105,75.7031579 86.3315789,74.8042105 85.4057895,74.8042105 L83.5847368,74.8042105 L83.5847368,78.8315789 L85.9910526,78.8315789 C87.6836842,78.8315789 88.2221053,78.2684211 89.0068421,77.1221053 L89.7515789,77.1221053 L88.76,79.7263158" id="Fill-5" fill="#193452"></path>
                        <polygon id="Fill-6" fill="#193452" points="12.7810526 75.0278947 24.0336842 75.0278947 24.0336842 73.4752632 12.7810526 73.4752632"></polygon>
                        <polygon id="Fill-7" fill="#193452" points="95.7531579 75.0278947 106.998421 75.0278947 106.998421 73.4752632 95.7531579 73.4752632"></polygon>
                        <polyline id="Fill-8" fill="#FFFFFE" points="68.0552632 9.18421053 57.8121053 24.0178947 58.9026316 29.8094737 68.0036842 29.8094737 68.0552632 9.18421053"></polyline>
                        <polyline id="Fill-9" fill="#FFFFFE" points="48.1978947 12.6015789 37.3510526 29.6115789 38.4415789 33.2278947 48.1978947 33.2278947 48.1978947 12.6015789"></polyline>
                        <path d="M79.0442105,29.8094737 L78.9368421,18.6789474 L72.73,10.4584211 L68.0552632,9.18421053 C68.2184211,9.48263158 71.7231579,15.8457895 71.7231579,15.8457895 L69.7852632,14.1736842 L68.0373684,16.3278947 L68.0036842,29.8094737 L79.0442105,29.8094737" id="Fill-10" fill="#FFDA1A"></path>
                        <path d="M59.1757895,33.2278947 L53.0568421,15.7326316 L51.57,14.7763158 C52.4305263,18.2631579 53.32,21.9268421 53.32,21.9268421 L50.7142105,19.3226316 L48.1978947,21.8015789 L48.1978947,33.2278947 L59.1757895,33.2278947" id="Fill-11" fill="#FFDA1A"></path>
                        <path d="M51.57,14.7763158 C50.8047368,11.6768421 50.0663158,8.71736842 49.9868421,8.57894737 L43.1342105,23.0368421 L46.3631579,19.5621053 L48.1978947,21.8015789 L48.1978947,12.6015789 L51.57,14.7763158" id="Fill-12" fill="#FFF2BB"></path>
                        <path d="M53.32,21.9268421 C53.32,21.9268421 52.4305263,18.2631579 51.57,14.7763158 L48.1978947,12.6015789 L48.1978947,21.8015789 L50.7142105,19.3226316 L53.32,21.9268421" id="Fill-13" fill="#FFE781"></path>
                        <polyline id="Fill-14" fill="#FFF2BB" points="64.4847368 16.5352632 66.5215789 14.3763158 68.0373684 16.3278947 68.0552632 9.18421053 64.4847368 16.5352632"></polyline>
                        <path d="M69.7852632,14.1736842 L71.7231579,15.8457895 C71.7231579,15.8457895 68.2184211,9.48263158 68.0552632,9.18421053 L68.0373684,16.3278947 L69.7852632,14.1736842" id="Fill-15" fill="#FFE781"></path>
                        <path d="M48.7526316,3.77315789 L51.0378947,3.77315789 C51.3463158,4.32684211 70.0921053,33.2278947 70.0921053,33.2278947 L59.1757895,33.2278947 C59.1757895,33.2278947 58.1247368,30.9415789 53.32,21.9268421 C50.6657895,17.05 49.1847368,14.3957895 48.1978947,12.6015789 C47.2078947,14.7605263 45.4821053,18.1594737 43.1342105,23.0368421 C40.5410526,28.3473684 38.4415789,33.2278947 38.4415789,33.2278947 L28.6852632,33.2278947 C28.6852632,33.2278947 47.9468421,6.30368421 48.7526316,3.77315789" id="Fill-16" fill="#193452"></path>
                        <path d="M68.6073684,0.356315789 L70.8942105,0.356315789 C71.2047368,0.908421053 89.9715789,29.8094737 89.9715789,29.8094737 L79.0442105,29.8094737 C79.0442105,29.8094737 77.9942105,27.5242105 73.1789474,18.5084211 C70.5247368,13.6315789 69.0410526,10.9757895 68.0552632,9.18421053 C67.0668421,11.3452632 65.3352632,14.7442105 62.99,19.6210526 C60.4026316,24.93 58.5552632,29.0705263 58.3073684,29.6868421 C58.1831579,29.6868421 57.7647368,20.9984211 55.6768421,21.3068421 C55.6768421,21.3068421 67.8057895,2.88842105 68.6073684,0.356315789" id="Fill-17" fill="#193452"></path>
                        <path d="M8.22052632,49.4589474 C7.72210526,49.4589474 7.35578947,49.3947368 7.35578947,49.3947368 L7.35578947,47.8289474 C7.35578947,47.8289474 7.72210526,47.9294737 8.55421053,47.9294737 C11.5163158,47.9294737 12.8147368,45.2668421 12.8147368,42.9705263 C12.8147368,40.6394737 11.85,38.3778947 8.85368421,38.3778947 L6.72368421,38.3778947 L6.72368421,55.2842105 C6.72368421,58.6131579 7.42263158,59.0452632 9.75315789,59.0452632 L9.75315789,60.0131579 L8.58736842,60.0131579 C7.15631579,60.0131579 6.35842105,59.9447368 4.92526316,59.9447368 C3.42894737,59.9447368 2.59526316,60.0131579 1.09842105,60.0131579 L0,60.0131579 L0,59.0452632 C2.36315789,59.0452632 2.99526316,58.6131579 2.99526316,55.2842105 L2.99526316,41.6378947 C2.99526316,38.3778947 2.46421053,37.8105263 0.0336842105,37.8105263 L0.0336842105,36.8442105 L1.09842105,36.8442105 C2.52894737,36.8442105 3.32947368,36.9126316 4.75894737,36.9126316 C6.35842105,36.9126316 8.45421053,36.8442105 9.21947368,36.8442105 C14.7447368,36.8442105 16.9410526,39.0084211 16.9410526,42.6710526 C16.9410526,46.9968421 13.3805263,49.4589474 8.22052632,49.4589474" id="Fill-18" fill="#193452"></path>
                        <path d="M22.6873684,48.2615789 L20.8236842,53.0894737 L24.2184211,53.0894737 L22.6873684,48.2615789 Z M30.6757895,60.0131579 C30.1768421,60.0131579 28.5457895,59.9784211 28.0468421,59.9784211 C27.5136842,59.9784211 25.8826316,60.0131579 25.3489474,60.0131579 L24.1510526,60.0131579 L24.1510526,59.1794737 C25.6163158,59.1794737 25.7821053,58.7805263 25.7821053,58.3468421 C25.7821053,57.9478947 25.4494737,56.8478947 25.25,56.2847368 L24.5836842,54.2857895 L20.4236842,54.2857895 L19.8584211,55.9168421 C19.7573684,56.2505263 19.2910526,57.6484211 19.2910526,58.1810526 C19.2910526,58.7805263 19.6252632,59.1794737 21.5547368,59.1794737 L21.5547368,60.0131579 L20.7242105,60.0131579 C19.5242105,60.0131579 18.8926316,59.9784211 18.1947368,59.9784211 C17.6947368,59.9784211 16.7626316,59.9784211 15.5310526,60.0131579 L14.4994737,60.0131579 L14.4994737,59.1794737 C16.6289474,59.1794737 17.1615789,58.58 18.1605263,56.0510526 L21.3215789,48.1289474 C21.5221053,47.6294737 21.8536842,46.5978947 21.8536842,46.5978947 C21.8536842,46.5978947 21.7552632,45.7336842 20.2905263,45.7336842 L20.2905263,44.9 L20.8568421,44.9 C21.0231579,44.9 21.89,44.9331579 22.5868421,44.9331579 C23.3205263,44.9331579 24.1178947,44.9 24.2852632,44.9 L24.8173684,44.9 L28.9110526,56.2178947 C29.3110526,57.3505263 29.7110526,58.2815789 30.0431579,58.6463158 C30.4084211,58.9784211 30.8752632,59.1794737 31.9057895,59.1794737 L31.9057895,60.0131579 L30.6757895,60.0131579 Z" id="Fill-19" fill="#193452"></path>
                        <path d="M39.7278947,46.1310526 C39.43,46.1310526 38.6310526,46.1994737 38.6310526,46.1994737 L38.6310526,51.8573684 C38.6310526,51.8573684 38.9963158,51.8905263 39.1636842,51.8905263 C40.9273684,51.8905263 42.4257895,51.1236842 42.4257895,49.0284211 C42.4257895,47.1305263 41.5921053,46.1310526 39.7278947,46.1310526 Z M45.4878947,60.0131579 C44.2552632,60.0131579 43.6552632,59.5110526 42.9910526,58.4821053 L40.6610526,54.4194737 C40.0284211,53.3221053 39.6294737,52.9221053 38.6310526,52.9221053 L38.6310526,57.0489474 C38.6310526,58.7136842 38.8626316,59.1794737 40.6273684,59.1794737 L40.6273684,60.0131579 L39.5626316,60.0131579 C38.5642105,60.0131579 37.9647368,59.9784211 36.9331579,59.9784211 C35.8678947,59.9784211 35.3015789,60.0131579 34.2368421,60.0131579 L33.0378947,60.0131579 L33.0378947,59.1794737 C34.8363158,59.1794737 35.1678947,58.7457895 35.1678947,57.0489474 L35.1678947,47.9294737 C35.1678947,46.1994737 34.87,45.7336842 33.0378947,45.7336842 L33.0378947,44.9 L34.2368421,44.9 C34.7357895,44.9 35.8347368,44.9331579 36.8326316,44.9331579 C37.9647368,44.9331579 38.7315789,44.9 39.9610526,44.9 C44.7878947,44.9 46.0536842,45.9663158 46.0536842,48.4957895 C46.0536842,50.7584211 44.1547368,52.09 42.4910526,52.4231579 C43.2568421,52.6226316 43.7563158,53.1868421 43.9568421,53.5552632 L46.5526316,57.8126316 C47.2831579,59.0805263 48.5826316,59.1794737 49.0163158,59.1794737 L49.0163158,60.0131579 L45.4878947,60.0131579 Z" id="Fill-20" fill="#193452"></path>
                        <path d="M56.6326316,48.2615789 L54.7731579,53.0894737 L58.1636842,53.0894737 L56.6326316,48.2615789 Z M64.6142105,60.0131579 C64.1142105,60.0131579 62.4842105,59.9784211 61.9852632,59.9784211 C61.4536842,59.9784211 59.8268421,60.0131579 59.2931579,60.0131579 L58.0952632,60.0131579 L58.0952632,59.1794737 C59.5610526,59.1794737 59.7263158,58.7805263 59.7263158,58.3468421 C59.7263158,57.9478947 59.3931579,56.8478947 59.1936842,56.2847368 L58.5289474,54.2857895 L54.3715789,54.2857895 L53.8052632,55.9168421 C53.7052632,56.2505263 53.2410526,57.6484211 53.2410526,58.1810526 C53.2410526,58.7805263 53.5726316,59.1794737 55.5036842,59.1794737 L55.5036842,60.0131579 L54.6726316,60.0131579 C53.4736842,60.0131579 52.8405263,59.9784211 52.1405263,59.9784211 C51.6415789,59.9784211 50.7105263,59.9784211 49.4805263,60.0131579 L48.4473684,60.0131579 L48.4473684,59.1794737 C50.5778947,59.1794737 51.1084211,58.58 52.1073684,56.0510526 L55.2705263,48.1289474 C55.47,47.6294737 55.8047368,46.5978947 55.8047368,46.5978947 C55.8047368,46.5978947 55.7042105,45.7336842 54.2389474,45.7336842 L54.2389474,44.9 L54.8063158,44.9 C54.9710526,44.9 55.8378947,44.9331579 56.5352632,44.9331579 C57.2626316,44.9331579 58.0631579,44.9 58.2273684,44.9 L58.7605263,44.9 L62.8510526,56.2178947 C63.2494737,57.3505263 63.6484211,58.2815789 63.9815789,58.6463158 C64.3478947,58.9784211 64.8136842,59.1794737 65.8457895,59.1794737 L65.8457895,60.0131579 L64.6142105,60.0131579 Z" id="Fill-21" fill="#193452"></path>
                        <path d="M81.4068421,55.7831579 L81.4068421,57.7810526 L81.9068421,58.7457895 C80.3768421,58.9784211 78.7457895,60.3115789 74.7847368,60.3115789 C68.56,60.3115789 66.1968421,57.0826316 66.1968421,52.6894737 C66.1968421,47.9615789 69.1594737,44.5684211 75.1515789,44.5684211 C79.0121053,44.5684211 81.1757895,45.4326316 81.1757895,45.4326316 L81.5410526,49.9594737 L80.5431579,49.9594737 C79.9431579,47.3284211 78.6105263,45.8978947 75.1836842,45.8978947 C71.7568421,45.8978947 69.9247368,48.4957895 69.9247368,52.6894737 C69.9247368,55.9842105 71.6552632,58.9468421 74.9510526,58.9468421 C77.7126316,58.9468421 78.2115789,57.8126316 78.2115789,57.8126316 L78.2115789,55.9515789 C78.2115789,54.8868421 77.9136842,54.4531579 75.9173684,54.4531579 L75.9173684,53.6210526 L76.9136842,53.6210526 C78.0463158,53.6210526 78.6773684,53.6526316 79.7778947,53.6526316 C80.5747368,53.6526316 81.0421053,53.6210526 81.8394737,53.6210526 L82.7736842,53.6210526 L82.7736842,54.4531579 C81.5410526,54.4531579 81.4068421,54.9184211 81.4068421,55.7831579" id="Fill-22" fill="#193452"></path>
                        <path d="M92.6947368,45.8647368 C89.0668421,45.8647368 88.0336842,49.1268421 88.0336842,52.6557895 C88.0336842,55.9842105 89.1647368,59.1473684 92.4936842,59.1473684 C96.0226316,59.1473684 97.1194737,55.9168421 97.1194737,52.3563158 C97.1194737,49.1942105 96.4210526,45.8647368 92.6947368,45.8647368 Z M92.4268421,60.4115789 C87.0021053,60.4115789 84.2736842,57.0826316 84.2736842,52.6557895 C84.2736842,47.9615789 87.2352632,44.6352632 92.7589474,44.6352632 C98.3521053,44.6352632 100.914737,47.9294737 100.914737,52.1889474 C100.914737,56.8478947 98.0857895,60.4115789 92.4268421,60.4115789 Z" id="Fill-23" fill="#193452"></path>
                        <path d="M117.650526,47.9294737 L117.650526,59.9115789 L116.417895,60.1442105 L105.635263,48.0952632 L105.635263,57.1494737 C105.635263,58.9784211 106.166316,59.1794737 107.996842,59.1794737 L107.996842,60.0131579 L106.998421,60.0131579 C106.233158,60.0131579 105.766316,59.9784211 105.002105,59.9784211 C104.169474,59.9784211 103.669474,60.0131579 102.838421,60.0131579 L101.907368,60.0131579 L101.907368,59.1794737 C103.736316,59.1794737 104.236842,58.8794737 104.236842,57.1826316 L104.236842,47.9294737 C104.236842,45.9663158 103.436842,45.7336842 101.907368,45.7336842 L101.907368,44.9 C101.907368,44.9 104.037368,44.9331579 105.102632,44.9331579 C106.065789,44.9331579 107.597895,44.9 107.597895,44.9 L116.218421,54.5536842 L116.218421,47.9615789 C116.218421,46.1642105 115.851579,45.7336842 113.888421,45.7336842 L113.888421,44.9 L114.786316,44.9 C115.553158,44.9 115.985789,44.9331579 116.784211,44.9331579 C117.616316,44.9331579 118.082105,44.9 118.946842,44.9 L119.780526,44.9 L119.780526,45.7336842 C117.982105,45.7336842 117.650526,46.1642105 117.650526,47.9294737" id="Fill-24" fill="#193452"></path>
                    </g>
                </g>
            </g>
        </g>
    </g>
</svg>