<?xml version="1.0" encoding="UTF-8"?>
<svg width="1680px" height="668px" viewBox="0 0 1680 668" version="1.1" xmlns="http://www.w3.org/2000/svg" xmlns:xlink="http://www.w3.org/1999/xlink">
    <!-- Generator: Sketch 50.2 (55047) - http://www.bohemiancoding.com/sketch -->
    <title>nav-bg</title>
    <desc>Created with Sketch.</desc>
    <defs>
        <rect id="path-1" x="0" y="0" width="1128" height="966"></rect>
    </defs>
    <g id="nav-bg" stroke="none" stroke-width="1" fill="none" fill-rule="evenodd" opacity="0.662611607">
        <g style="mix-blend-mode: overlay;" transform="translate(276.000000, -162.000000)">
            <mask id="mask-2" fill="white">
                <use xlink:href="#path-1"></use>
            </mask>
            <g id="Mask"></g>
            <g id="Logo-B/W" mask="url(#mask-2)">
                <g transform="translate(-381.000000, 163.000000)">
                    <polyline id="Fill-8" fill="#FFFFFE" points="1073.82203 179.48363 911.69135 482.504217 928.952411 600.813845 1073.00563 600.813845 1073.82203 179.48363"></polyline>
                    <polyline id="Fill-9" fill="#FFFFFE" points="760.134412 249.451824 588.604854 596.912177 605.850195 670.782039 760.134412 670.782039 760.134412 249.451824"></polyline>
                    <path d="M1246.52645,600.813845 L1244.83548,373.440889 L1147.08278,205.513038 L1073.45949,179.48363 C1076.0291,185.579736 1131.22584,315.565505 1131.22584,315.565505 L1100.70558,281.407954 L1073.17767,325.413889 L1072.64717,600.813845 L1246.52645,600.813845" id="Fill-10" fill="#797979"></path>
                    <path d="M932.83883,669.260992 L836.575451,313.034074 L813.184427,293.562208 C826.722241,364.558969 840.715455,439.156471 840.715455,439.156471 L799.721133,386.131267 L760.134412,436.605946 L760.134412,669.260992 L932.83883,669.260992" id="Fill-11" fill="#797979"></path>
                    <path d="M814.177971,292.281471 C802.134557,229.021723 790.513573,168.619351 789.262847,165.7942 L681.418793,460.877456 L732.234712,389.958648 L761.109088,435.665938 L761.109088,247.89545 L814.177971,292.281471" id="Fill-12" fill="#CFD2D2"></path>
                    <path d="M841.199751,439.582788 C841.199751,439.582788 827.122437,364.884648 813.50326,293.792108 L760.134412,249.451824 L760.134412,437.028822 L799.959051,386.486049 L841.199751,439.582788" id="Fill-13" fill="#92999B"></path>
                    <polyline id="Fill-14" fill="#CFD2D2" points="1017.42875 330.067353 1049.59885 285.842077 1073.5394 325.819484 1073.82203 179.48363 1017.42875 330.067353"></polyline>
                    <path d="M1099.94744,281.471038 L1130.21531,315.64973 C1130.21531,315.64973 1075.47502,185.583509 1072.92667,179.48363 L1072.64717,325.50421 L1099.94744,281.471038" id="Fill-15" fill="#92999B"></path>
                    <path d="M768.897993,69.9681946 L804.949632,69.9681946 C809.815191,81.2907646 1105.54325,672.303087 1105.54325,672.303087 L933.330664,672.303087 C933.330664,672.303087 916.749567,625.549053 840.951452,441.202115 C799.079408,341.473091 775.714758,287.19579 760.146628,250.505066 C744.528679,294.654479 717.303132,364.161282 680.263436,463.901069 C639.35454,572.498722 606.233861,672.303087 606.233861,672.303087 L452.321095,672.303087 C452.321095,672.303087 756.186095,121.716214 768.897993,69.9681946" id="Fill-16" fill="#1A1919"></path>
                    <path d="M1083.00469,0 L1119.12036,0 C1124.02445,11.2908865 1420.40572,602.334892 1420.40572,602.334892 L1247.83181,602.334892 C1247.83181,602.334892 1231.24935,555.599879 1155.20279,371.221531 C1113.28533,271.487161 1089.85378,217.17466 1074.28539,180.535787 C1058.67544,224.73062 1031.32893,294.241149 994.290625,393.97552 C953.428792,502.546704 924.253644,587.222972 920.338688,599.827002 C918.377054,599.827002 911.769007,422.143537 878.795271,428.450934 C878.795271,428.450934 1070.3455,51.7830841 1083.00469,0" id="Fill-17" fill="#1A1919"></path>
                </g>
            </g>
        </g>
    </g>
</svg>